<?xml version="1.0" standalone="no"?>
<!-- Creator: fig2dev Version 3.2.7a -->
<!-- CreationDate: 2021-09-01 15:38:00 -->
<!-- Magnification: 1 -->
<svg	xmlns="http://www.w3.org/2000/svg"
	xmlns:xlink="http://www.w3.org/1999/xlink"
	width="286pt" height="155pt"
	viewBox="54 738 4761 2574">
<g fill="none">
<!-- Arc -->
<defs>
<clipPath id="cp0">
	<path clip-rule="evenodd" d="M 54,738 H 4815 V 3312 H 54 z
		M 4513,1560 4532,1503 4421,1492 4417,1504z"/>
</clipPath>
</defs>
<path d="M 4425,1950 A 226 226 0 0 0 4425 1500" clip-path="url(#cp0)"
	stroke="#000000" stroke-width="8px"/>
<!-- Forward arrow to point 4425,1500 -->
<polygon points=" 4532,1503 4437,1504 4513,1560 4532,1503"
	stroke="#000000" stroke-width="8px" stroke-miterlimit="8" fill="#000000"/>
<!-- Arc -->
<defs>
<clipPath id="cp1">
	<path clip-rule="evenodd" d="M 54,738 H 4815 V 3312 H 54 z
		M 4513,2085 4532,2028 4421,2017 4417,2029z"/>
</clipPath>
</defs>
<path d="M 4425,2475 A 226 226 0 0 0 4425 2025" clip-path="url(#cp1)"
	stroke="#000000" stroke-width="8px"/>
<!-- Forward arrow to point 4425,2025 -->
<polygon points=" 4532,2028 4437,2029 4513,2085 4532,2028"
	stroke="#000000" stroke-width="8px" stroke-miterlimit="8" fill="#000000"/>
<!-- Arc -->
<defs>
<clipPath id="cp2">
	<path clip-rule="evenodd" d="M 54,738 H 4815 V 3312 H 54 z
		M 4513,2610 4532,2553 4421,2542 4417,2554z"/>
</clipPath>
</defs>
<path d="M 4425,3000 A 226 226 0 0 0 4425 2550" clip-path="url(#cp2)"
	stroke="#000000" stroke-width="8px"/>
<!-- Forward arrow to point 4425,2550 -->
<polygon points=" 4532,2553 4437,2554 4513,2610 4532,2553"
	stroke="#000000" stroke-width="8px" stroke-miterlimit="8" fill="#000000"/>
<!-- Arc -->
<defs>
<clipPath id="cp3">
	<path clip-rule="evenodd" d="M 54,738 H 4815 V 3312 H 54 z
		M 4513,1035 4532,978 4421,967 4417,979z"/>
</clipPath>
</defs>
<path d="M 4425,1425 A 226 226 0 0 0 4425 975" clip-path="url(#cp3)"
	stroke="#000000" stroke-width="8px"/>
<!-- Forward arrow to point 4425,975 -->
<polygon points=" 4532,978 4437,979 4513,1035 4532,978"
	stroke="#000000" stroke-width="8px" stroke-miterlimit="8" fill="#000000"/>
<!-- Line -->
<rect x="975" y="750" width="3450" height="450" fill="#e5e5e5"
	stroke="#000000" stroke-width="8px"/>
<!-- Line -->
<rect x="975" y="1800" width="3450" height="450" fill="#e5e5e5"
	stroke="#000000" stroke-width="8px"/>
<!-- Line -->
<rect x="975" y="1275" width="3450" height="450" fill="#e5e5e5"
	stroke="#000000" stroke-width="8px"/>
<!-- Line -->
<rect x="975" y="2325" width="3450" height="450" fill="#e5e5e5"
	stroke="#000000" stroke-width="8px"/>
<!-- Line -->
<rect x="975" y="2850" width="3450" height="450" fill="#e5e5e5"
	stroke="#000000" stroke-width="8px"/>
<!-- Line -->
<rect x="1350" y="1350" width="225" height="300"
	stroke="#000000" stroke-width="8px"/>
<!-- Line -->
<rect x="2700" y="1350" width="225" height="300"
	stroke="#000000" stroke-width="8px"/>
<!-- Line -->
<rect x="3900" y="1350" width="225" height="300"
	stroke="#000000" stroke-width="8px"/>
<!-- Line -->
<rect x="3900" y="1875" width="225" height="300"
	stroke="#000000" stroke-width="8px"/>
<!-- Line -->
<rect x="3900" y="2400" width="225" height="300"
	stroke="#000000" stroke-width="8px"/>
<!-- Line -->
<rect x="2700" y="2400" width="225" height="300"
	stroke="#000000" stroke-width="8px"/>
<!-- Line -->
<rect x="2700" y="1875" width="225" height="300"
	stroke="#000000" stroke-width="8px"/>
<!-- Line -->
<rect x="1350" y="1875" width="225" height="300"
	stroke="#000000" stroke-width="8px"/>
<!-- Line -->
<rect x="1350" y="2400" width="225" height="300"
	stroke="#000000" stroke-width="8px"/>
<!-- Line -->
<rect x="1350" y="2925" width="225" height="300"
	stroke="#000000" stroke-width="8px"/>
<!-- Text -->
<text xml:space="preserve" x="900" y="1575" fill="#000000" font-family="Helvetica" font-style="normal" font-weight="normal" font-size="144" text-anchor="end">factorial</text>
<!-- Text -->
<text xml:space="preserve" x="900" y="2100" fill="#000000" font-family="Helvetica" font-style="normal" font-weight="normal" font-size="144" text-anchor="end">factorial</text>
<!-- Text -->
<text xml:space="preserve" x="900" y="2625" fill="#000000" font-family="Helvetica" font-style="normal" font-weight="normal" font-size="144" text-anchor="end">factorial</text>
<!-- Text -->
<text xml:space="preserve" x="900" y="3150" fill="#000000" font-family="Helvetica" font-style="normal" font-weight="normal" font-size="144" text-anchor="end">factorial</text>
<!-- Text -->
<text xml:space="preserve" x="900" y="1050" fill="#000000" font-family="Helvetica" font-style="normal" font-weight="normal" font-size="144" text-anchor="end">main</text>
<!-- Text -->
<text xml:space="preserve" x="1425" y="1575" fill="#000000" font-family="Helvetica" font-style="normal" font-weight="normal" font-size="144" text-anchor="start">3</text>
<!-- Text -->
<text xml:space="preserve" x="1425" y="2100" fill="#000000" font-family="Helvetica" font-style="normal" font-weight="normal" font-size="144" text-anchor="start">2</text>
<!-- Text -->
<text xml:space="preserve" x="1425" y="2625" fill="#000000" font-family="Helvetica" font-style="normal" font-weight="normal" font-size="144" text-anchor="start">1</text>
<!-- Text -->
<text xml:space="preserve" x="1425" y="3150" fill="#000000" font-family="Helvetica" font-style="normal" font-weight="normal" font-size="144" text-anchor="start">0</text>
<!-- Text -->
<text xml:space="preserve" x="2775" y="1575" fill="#000000" font-family="Helvetica" font-style="normal" font-weight="normal" font-size="144" text-anchor="start">2</text>
<!-- Text -->
<text xml:space="preserve" x="2775" y="2100" fill="#000000" font-family="Helvetica" font-style="normal" font-weight="normal" font-size="144" text-anchor="start">1</text>
<!-- Text -->
<text xml:space="preserve" x="2775" y="2625" fill="#000000" font-family="Helvetica" font-style="normal" font-weight="normal" font-size="144" text-anchor="start">1</text>
<!-- Text -->
<text xml:space="preserve" x="3975" y="1575" fill="#000000" font-family="Helvetica" font-style="normal" font-weight="normal" font-size="144" text-anchor="start">6</text>
<!-- Text -->
<text xml:space="preserve" x="3975" y="2100" fill="#000000" font-family="Helvetica" font-style="normal" font-weight="normal" font-size="144" text-anchor="start">2</text>
<!-- Text -->
<text xml:space="preserve" x="3975" y="2625" fill="#000000" font-family="Helvetica" font-style="normal" font-weight="normal" font-size="144" text-anchor="start">1</text>
<!-- Text -->
<text xml:space="preserve" x="1275" y="1575" fill="#000000" font-family="Helvetica" font-style="normal" font-weight="normal" font-size="144" text-anchor="end">n</text>
<!-- Text -->
<text xml:space="preserve" x="1275" y="2100" fill="#000000" font-family="Helvetica" font-style="normal" font-weight="normal" font-size="144" text-anchor="end">n</text>
<!-- Text -->
<text xml:space="preserve" x="1275" y="2625" fill="#000000" font-family="Helvetica" font-style="normal" font-weight="normal" font-size="144" text-anchor="end">n</text>
<!-- Text -->
<text xml:space="preserve" x="1275" y="3150" fill="#000000" font-family="Helvetica" font-style="normal" font-weight="normal" font-size="144" text-anchor="end">n</text>
<!-- Text -->
<text xml:space="preserve" x="2625" y="2625" fill="#000000" font-family="Helvetica" font-style="normal" font-weight="normal" font-size="144" text-anchor="end">recurse</text>
<!-- Text -->
<text xml:space="preserve" x="2625" y="2100" fill="#000000" font-family="Helvetica" font-style="normal" font-weight="normal" font-size="144" text-anchor="end">recurse</text>
<!-- Text -->
<text xml:space="preserve" x="2625" y="1575" fill="#000000" font-family="Helvetica" font-style="normal" font-weight="normal" font-size="144" text-anchor="end">recurse</text>
<!-- Text -->
<text xml:space="preserve" x="3825" y="1575" fill="#000000" font-family="Helvetica" font-style="normal" font-weight="normal" font-size="144" text-anchor="end">result</text>
<!-- Text -->
<text xml:space="preserve" x="3825" y="2100" fill="#000000" font-family="Helvetica" font-style="normal" font-weight="normal" font-size="144" text-anchor="end">result</text>
<!-- Text -->
<text xml:space="preserve" x="3825" y="2625" fill="#000000" font-family="Helvetica" font-style="normal" font-weight="normal" font-size="144" text-anchor="end">result</text>
<!-- Text -->
<text xml:space="preserve" x="4800" y="2850" fill="#000000" font-family="Helvetica" font-style="normal" font-weight="normal" font-size="144" text-anchor="end">1</text>
<!-- Text -->
<text xml:space="preserve" x="4800" y="2325" fill="#000000" font-family="Helvetica" font-style="normal" font-weight="normal" font-size="144" text-anchor="end">1</text>
<!-- Text -->
<text xml:space="preserve" x="4800" y="1800" fill="#000000" font-family="Helvetica" font-style="normal" font-weight="normal" font-size="144" text-anchor="end">2</text>
<!-- Text -->
<text xml:space="preserve" x="4800" y="1275" fill="#000000" font-family="Helvetica" font-style="normal" font-weight="normal" font-size="144" text-anchor="end">6</text>
</g>
</svg>
